<mxfile host="app.diagrams.net" modified="2023-04-22T17:31:48.046Z" agent="Mozilla/5.0 (Windows NT 10.0; Win64; x64) AppleWebKit/537.36 (KHTML, like Gecko) Chrome/111.0.0.0 Safari/537.36 OPR/97.0.0.0 (Edition Campaign 34)" etag="Cy0qs3BHcgVCMGcbG8BD" version="21.2.1" type="device" pages="6">
  <diagram name="Company" id="gav-xLVfnbw1KwbaijDN">
    <mxGraphModel dx="1009" dy="581" grid="1" gridSize="10" guides="1" tooltips="1" connect="1" arrows="1" fold="1" page="1" pageScale="1" pageWidth="827" pageHeight="1169" math="0" shadow="0">
      <root>
        <mxCell id="0" />
        <mxCell id="1" parent="0" />
        <mxCell id="8l9SoM9GO2cYBD3Hw15K-1" value="&lt;b&gt;&amp;nbsp;Google&lt;/b&gt;" style="rounded=0;whiteSpace=wrap;html=1;" parent="1" vertex="1">
          <mxGeometry x="52.5" y="80" width="120" height="60" as="geometry" />
        </mxCell>
        <mxCell id="8l9SoM9GO2cYBD3Hw15K-2" value="&lt;b&gt;1&lt;/b&gt;" style="rounded=0;whiteSpace=wrap;html=1;" parent="1" vertex="1">
          <mxGeometry x="95" y="80" width="35" height="20" as="geometry" />
        </mxCell>
        <mxCell id="8l9SoM9GO2cYBD3Hw15K-3" value="&lt;b&gt;Moodle&lt;/b&gt;" style="rounded=0;whiteSpace=wrap;html=1;" parent="1" vertex="1">
          <mxGeometry x="200" y="80" width="120" height="60" as="geometry" />
        </mxCell>
        <mxCell id="8l9SoM9GO2cYBD3Hw15K-4" value="&lt;b&gt;2&lt;/b&gt;" style="rounded=0;whiteSpace=wrap;html=1;" parent="1" vertex="1">
          <mxGeometry x="240" y="80" width="35" height="20" as="geometry" />
        </mxCell>
        <mxCell id="8l9SoM9GO2cYBD3Hw15K-5" value="&lt;b&gt;Innowise&lt;/b&gt;" style="rounded=0;whiteSpace=wrap;html=1;" parent="1" vertex="1">
          <mxGeometry x="350" y="80" width="120" height="60" as="geometry" />
        </mxCell>
        <mxCell id="8l9SoM9GO2cYBD3Hw15K-6" value="&lt;b&gt;3&lt;/b&gt;" style="rounded=0;whiteSpace=wrap;html=1;" parent="1" vertex="1">
          <mxGeometry x="392.5" y="80" width="35" height="20" as="geometry" />
        </mxCell>
        <mxCell id="8l9SoM9GO2cYBD3Hw15K-7" value="&lt;b&gt;Akila&lt;/b&gt;" style="rounded=0;whiteSpace=wrap;html=1;" parent="1" vertex="1">
          <mxGeometry x="502.5" y="80" width="120" height="60" as="geometry" />
        </mxCell>
        <mxCell id="8l9SoM9GO2cYBD3Hw15K-8" value="&lt;b&gt;4&lt;/b&gt;" style="rounded=0;whiteSpace=wrap;html=1;" parent="1" vertex="1">
          <mxGeometry x="545" y="80" width="35" height="20" as="geometry" />
        </mxCell>
        <mxCell id="8l9SoM9GO2cYBD3Hw15K-10" value="&lt;b&gt;Beheader&lt;/b&gt;" style="rounded=0;whiteSpace=wrap;html=1;" parent="1" vertex="1">
          <mxGeometry x="650" y="80" width="120" height="60" as="geometry" />
        </mxCell>
        <mxCell id="8l9SoM9GO2cYBD3Hw15K-11" value="&lt;b&gt;5&lt;/b&gt;" style="rounded=0;whiteSpace=wrap;html=1;" parent="1" vertex="1">
          <mxGeometry x="692.5" y="80" width="35" height="20" as="geometry" />
        </mxCell>
        <mxCell id="8l9SoM9GO2cYBD3Hw15K-12" value="&lt;b&gt;Xiaomi&lt;/b&gt;" style="rounded=0;whiteSpace=wrap;html=1;" parent="1" vertex="1">
          <mxGeometry x="53" y="180" width="120" height="60" as="geometry" />
        </mxCell>
        <mxCell id="8l9SoM9GO2cYBD3Hw15K-13" value="&lt;b&gt;6&lt;/b&gt;" style="rounded=0;whiteSpace=wrap;html=1;" parent="1" vertex="1">
          <mxGeometry x="95" y="180" width="35" height="20" as="geometry" />
        </mxCell>
        <mxCell id="8l9SoM9GO2cYBD3Hw15K-14" value="&lt;b&gt;Samsung&lt;/b&gt;" style="rounded=0;whiteSpace=wrap;html=1;" parent="1" vertex="1">
          <mxGeometry x="200" y="180" width="120" height="60" as="geometry" />
        </mxCell>
        <mxCell id="8l9SoM9GO2cYBD3Hw15K-15" value="&lt;b&gt;7&lt;/b&gt;" style="rounded=0;whiteSpace=wrap;html=1;" parent="1" vertex="1">
          <mxGeometry x="240" y="180" width="35" height="20" as="geometry" />
        </mxCell>
        <mxCell id="8l9SoM9GO2cYBD3Hw15K-16" value="&lt;b&gt;Realme&lt;/b&gt;" style="rounded=0;whiteSpace=wrap;html=1;" parent="1" vertex="1">
          <mxGeometry x="350" y="180" width="120" height="60" as="geometry" />
        </mxCell>
        <mxCell id="8l9SoM9GO2cYBD3Hw15K-18" value="&lt;b&gt;8&lt;/b&gt;" style="rounded=0;whiteSpace=wrap;html=1;" parent="1" vertex="1">
          <mxGeometry x="392.5" y="180" width="35" height="20" as="geometry" />
        </mxCell>
        <mxCell id="8l9SoM9GO2cYBD3Hw15K-19" value="&lt;b&gt;Fujitsu&lt;/b&gt;" style="rounded=0;whiteSpace=wrap;html=1;" parent="1" vertex="1">
          <mxGeometry x="503" y="180" width="120" height="60" as="geometry" />
        </mxCell>
        <mxCell id="8l9SoM9GO2cYBD3Hw15K-20" value="&lt;b&gt;9&lt;/b&gt;" style="rounded=0;whiteSpace=wrap;html=1;" parent="1" vertex="1">
          <mxGeometry x="545.5" y="180" width="35" height="20" as="geometry" />
        </mxCell>
        <mxCell id="8l9SoM9GO2cYBD3Hw15K-21" value="&lt;b&gt;Intel&lt;/b&gt;" style="rounded=0;whiteSpace=wrap;html=1;" parent="1" vertex="1">
          <mxGeometry x="650" y="180" width="120" height="60" as="geometry" />
        </mxCell>
        <mxCell id="8l9SoM9GO2cYBD3Hw15K-22" value="&lt;b&gt;10&lt;/b&gt;" style="rounded=0;whiteSpace=wrap;html=1;" parent="1" vertex="1">
          <mxGeometry x="692.5" y="180" width="35" height="20" as="geometry" />
        </mxCell>
      </root>
    </mxGraphModel>
  </diagram>
  <diagram id="gXrJ5pOZwd0204sGXmLH" name="Projects">
    <mxGraphModel dx="1009" dy="2919" grid="1" gridSize="10" guides="1" tooltips="1" connect="1" arrows="1" fold="1" page="1" pageScale="1" pageWidth="827" pageHeight="1169" math="0" shadow="0">
      <root>
        <mxCell id="0" />
        <mxCell id="1" parent="0" />
        <mxCell id="ImSNmDydfp1c_jSwIOK0-1" value="&lt;b&gt;Angry Pigs&lt;/b&gt;" style="whiteSpace=wrap;html=1;aspect=fixed;" parent="1" vertex="1">
          <mxGeometry x="40" y="-2280" width="80" height="80" as="geometry" />
        </mxCell>
        <mxCell id="hACll-n0AecWJ5TqIQsg-1" value="&lt;b&gt;1&lt;/b&gt;" style="whiteSpace=wrap;html=1;aspect=fixed;" parent="1" vertex="1">
          <mxGeometry x="70" y="-2280" width="20" height="20" as="geometry" />
        </mxCell>
        <mxCell id="hACll-n0AecWJ5TqIQsg-2" value="&lt;b&gt;Shots&lt;/b&gt;" style="whiteSpace=wrap;html=1;aspect=fixed;" parent="1" vertex="1">
          <mxGeometry x="150" y="-2280" width="80" height="80" as="geometry" />
        </mxCell>
        <mxCell id="hACll-n0AecWJ5TqIQsg-4" value="&lt;b&gt;2&lt;/b&gt;" style="whiteSpace=wrap;html=1;aspect=fixed;" parent="1" vertex="1">
          <mxGeometry x="180" y="-2280" width="20" height="20" as="geometry" />
        </mxCell>
        <mxCell id="hACll-n0AecWJ5TqIQsg-5" value="&lt;b&gt;Rip&lt;/b&gt;" style="whiteSpace=wrap;html=1;aspect=fixed;" parent="1" vertex="1">
          <mxGeometry x="260" y="-2280" width="80" height="80" as="geometry" />
        </mxCell>
        <mxCell id="hACll-n0AecWJ5TqIQsg-6" value="&lt;b&gt;Anihilate humanity&lt;/b&gt;" style="whiteSpace=wrap;html=1;aspect=fixed;fontSize=12;" parent="1" vertex="1">
          <mxGeometry x="374" y="-2280" width="80" height="80" as="geometry" />
        </mxCell>
        <mxCell id="hACll-n0AecWJ5TqIQsg-7" value="&lt;b&gt;Behead&lt;/b&gt;" style="whiteSpace=wrap;html=1;aspect=fixed;" parent="1" vertex="1">
          <mxGeometry x="490" y="-2280" width="80" height="80" as="geometry" />
        </mxCell>
        <mxCell id="hACll-n0AecWJ5TqIQsg-8" value="&lt;b&gt;3&lt;/b&gt;" style="whiteSpace=wrap;html=1;aspect=fixed;" parent="1" vertex="1">
          <mxGeometry x="290" y="-2280" width="20" height="20" as="geometry" />
        </mxCell>
        <mxCell id="hACll-n0AecWJ5TqIQsg-9" value="&lt;b&gt;4&lt;/b&gt;" style="whiteSpace=wrap;html=1;aspect=fixed;" parent="1" vertex="1">
          <mxGeometry x="404" y="-2280" width="20" height="20" as="geometry" />
        </mxCell>
        <mxCell id="hACll-n0AecWJ5TqIQsg-10" value="&lt;b&gt;5&lt;/b&gt;" style="whiteSpace=wrap;html=1;aspect=fixed;" parent="1" vertex="1">
          <mxGeometry x="520" y="-2280" width="20" height="20" as="geometry" />
        </mxCell>
        <mxCell id="hACll-n0AecWJ5TqIQsg-11" value="&lt;b&gt;Opponent&lt;/b&gt;" style="whiteSpace=wrap;html=1;aspect=fixed;" parent="1" vertex="1">
          <mxGeometry x="40" y="-2160" width="80" height="80" as="geometry" />
        </mxCell>
        <mxCell id="hACll-n0AecWJ5TqIQsg-12" value="&lt;b&gt;Suffer&lt;/b&gt;" style="whiteSpace=wrap;html=1;aspect=fixed;" parent="1" vertex="1">
          <mxGeometry x="150" y="-2160" width="80" height="80" as="geometry" />
        </mxCell>
        <mxCell id="hACll-n0AecWJ5TqIQsg-13" value="&lt;b&gt;Diary&lt;/b&gt;" style="whiteSpace=wrap;html=1;aspect=fixed;" parent="1" vertex="1">
          <mxGeometry x="260" y="-2160" width="80" height="80" as="geometry" />
        </mxCell>
        <mxCell id="hACll-n0AecWJ5TqIQsg-14" value="&lt;b&gt;Cemety&lt;/b&gt;" style="whiteSpace=wrap;html=1;aspect=fixed;" parent="1" vertex="1">
          <mxGeometry x="374" y="-2160" width="80" height="80" as="geometry" />
        </mxCell>
        <mxCell id="hACll-n0AecWJ5TqIQsg-15" value="&lt;b&gt;Shot&lt;/b&gt;" style="whiteSpace=wrap;html=1;aspect=fixed;" parent="1" vertex="1">
          <mxGeometry x="490" y="-2160" width="80" height="80" as="geometry" />
        </mxCell>
        <mxCell id="hACll-n0AecWJ5TqIQsg-16" value="&lt;b&gt;6&lt;/b&gt;" style="whiteSpace=wrap;html=1;aspect=fixed;" parent="1" vertex="1">
          <mxGeometry x="70" y="-2160" width="20" height="20" as="geometry" />
        </mxCell>
        <mxCell id="hACll-n0AecWJ5TqIQsg-17" value="&lt;b&gt;7&lt;/b&gt;" style="whiteSpace=wrap;html=1;aspect=fixed;" parent="1" vertex="1">
          <mxGeometry x="180" y="-2160" width="20" height="20" as="geometry" />
        </mxCell>
        <mxCell id="hACll-n0AecWJ5TqIQsg-18" value="&lt;b&gt;8&lt;/b&gt;" style="whiteSpace=wrap;html=1;aspect=fixed;" parent="1" vertex="1">
          <mxGeometry x="290" y="-2160" width="20" height="20" as="geometry" />
        </mxCell>
        <mxCell id="hACll-n0AecWJ5TqIQsg-19" value="&lt;b&gt;9&lt;/b&gt;" style="whiteSpace=wrap;html=1;aspect=fixed;" parent="1" vertex="1">
          <mxGeometry x="404" y="-2160" width="20" height="20" as="geometry" />
        </mxCell>
        <mxCell id="hACll-n0AecWJ5TqIQsg-20" value="&lt;b&gt;10&lt;/b&gt;" style="whiteSpace=wrap;html=1;aspect=fixed;" parent="1" vertex="1">
          <mxGeometry x="520" y="-2160" width="20" height="20" as="geometry" />
        </mxCell>
      </root>
    </mxGraphModel>
  </diagram>
  <diagram id="bvXuKBIvniT_KkxOeq0a" name="Employes">
    <mxGraphModel dx="1009" dy="581" grid="1" gridSize="10" guides="1" tooltips="1" connect="1" arrows="1" fold="1" page="1" pageScale="1" pageWidth="827" pageHeight="1169" math="0" shadow="0">
      <root>
        <mxCell id="0" />
        <mxCell id="1" parent="0" />
        <mxCell id="-noBp9sP09E2U7W5WZK8-1" value="&lt;b&gt;Иван&lt;/b&gt;" style="ellipse;whiteSpace=wrap;html=1;aspect=fixed;" parent="1" vertex="1">
          <mxGeometry x="80" y="40" width="80" height="80" as="geometry" />
        </mxCell>
        <mxCell id="-noBp9sP09E2U7W5WZK8-2" value="&lt;b&gt;1&lt;/b&gt;" style="ellipse;whiteSpace=wrap;html=1;aspect=fixed;" parent="1" vertex="1">
          <mxGeometry x="110" y="40" width="20" height="20" as="geometry" />
        </mxCell>
        <mxCell id="-noBp9sP09E2U7W5WZK8-3" value="&lt;b&gt;Вера&lt;/b&gt;" style="ellipse;whiteSpace=wrap;html=1;aspect=fixed;" parent="1" vertex="1">
          <mxGeometry x="180" y="40" width="80" height="80" as="geometry" />
        </mxCell>
        <mxCell id="-noBp9sP09E2U7W5WZK8-4" value="&lt;b&gt;Анна&lt;/b&gt;" style="ellipse;whiteSpace=wrap;html=1;aspect=fixed;" parent="1" vertex="1">
          <mxGeometry x="290" y="40" width="80" height="80" as="geometry" />
        </mxCell>
        <mxCell id="-noBp9sP09E2U7W5WZK8-5" value="&lt;b&gt;Олег&lt;/b&gt;" style="ellipse;whiteSpace=wrap;html=1;aspect=fixed;" parent="1" vertex="1">
          <mxGeometry x="400" y="40" width="80" height="80" as="geometry" />
        </mxCell>
        <mxCell id="-noBp9sP09E2U7W5WZK8-6" value="&lt;b&gt;Нина&lt;/b&gt;" style="ellipse;whiteSpace=wrap;html=1;aspect=fixed;" parent="1" vertex="1">
          <mxGeometry x="510" y="40" width="80" height="80" as="geometry" />
        </mxCell>
        <mxCell id="-noBp9sP09E2U7W5WZK8-7" value="&lt;b&gt;Глеб&lt;/b&gt;" style="ellipse;whiteSpace=wrap;html=1;aspect=fixed;" parent="1" vertex="1">
          <mxGeometry x="80" y="140" width="80" height="80" as="geometry" />
        </mxCell>
        <mxCell id="-noBp9sP09E2U7W5WZK8-8" value="&lt;b&gt;Пётр&lt;/b&gt;" style="ellipse;whiteSpace=wrap;html=1;aspect=fixed;" parent="1" vertex="1">
          <mxGeometry x="180" y="140" width="80" height="80" as="geometry" />
        </mxCell>
        <mxCell id="-noBp9sP09E2U7W5WZK8-9" value="&lt;b&gt;Яна&lt;/b&gt;" style="ellipse;whiteSpace=wrap;html=1;aspect=fixed;" parent="1" vertex="1">
          <mxGeometry x="290" y="140" width="80" height="80" as="geometry" />
        </mxCell>
        <mxCell id="-noBp9sP09E2U7W5WZK8-10" value="&lt;b&gt;Николай&lt;/b&gt;" style="ellipse;whiteSpace=wrap;html=1;aspect=fixed;" parent="1" vertex="1">
          <mxGeometry x="400" y="140" width="80" height="80" as="geometry" />
        </mxCell>
        <mxCell id="-noBp9sP09E2U7W5WZK8-11" value="&lt;b&gt;Инна&lt;/b&gt;" style="ellipse;whiteSpace=wrap;html=1;aspect=fixed;" parent="1" vertex="1">
          <mxGeometry x="510" y="140" width="80" height="80" as="geometry" />
        </mxCell>
        <mxCell id="-noBp9sP09E2U7W5WZK8-13" value="&lt;b&gt;2&lt;/b&gt;" style="ellipse;whiteSpace=wrap;html=1;aspect=fixed;" parent="1" vertex="1">
          <mxGeometry x="210" y="40" width="20" height="20" as="geometry" />
        </mxCell>
        <mxCell id="-noBp9sP09E2U7W5WZK8-14" value="&lt;b&gt;3&lt;/b&gt;" style="ellipse;whiteSpace=wrap;html=1;aspect=fixed;" parent="1" vertex="1">
          <mxGeometry x="320" y="40" width="20" height="20" as="geometry" />
        </mxCell>
        <mxCell id="-noBp9sP09E2U7W5WZK8-15" value="&lt;b&gt;4&lt;/b&gt;" style="ellipse;whiteSpace=wrap;html=1;aspect=fixed;" parent="1" vertex="1">
          <mxGeometry x="430" y="40" width="20" height="20" as="geometry" />
        </mxCell>
        <mxCell id="-noBp9sP09E2U7W5WZK8-16" value="&lt;b&gt;5&lt;/b&gt;" style="ellipse;whiteSpace=wrap;html=1;aspect=fixed;" parent="1" vertex="1">
          <mxGeometry x="540" y="40" width="20" height="20" as="geometry" />
        </mxCell>
        <mxCell id="-noBp9sP09E2U7W5WZK8-17" value="&lt;b&gt;6&lt;/b&gt;" style="ellipse;whiteSpace=wrap;html=1;aspect=fixed;" parent="1" vertex="1">
          <mxGeometry x="110" y="140" width="20" height="20" as="geometry" />
        </mxCell>
        <mxCell id="-noBp9sP09E2U7W5WZK8-18" value="&lt;b&gt;7&lt;/b&gt;" style="ellipse;whiteSpace=wrap;html=1;aspect=fixed;" parent="1" vertex="1">
          <mxGeometry x="210" y="140" width="20" height="20" as="geometry" />
        </mxCell>
        <mxCell id="-noBp9sP09E2U7W5WZK8-19" value="&lt;b&gt;8&lt;/b&gt;" style="ellipse;whiteSpace=wrap;html=1;aspect=fixed;" parent="1" vertex="1">
          <mxGeometry x="320" y="140" width="20" height="20" as="geometry" />
        </mxCell>
        <mxCell id="-noBp9sP09E2U7W5WZK8-20" value="&lt;b&gt;9&lt;/b&gt;" style="ellipse;whiteSpace=wrap;html=1;aspect=fixed;" parent="1" vertex="1">
          <mxGeometry x="430" y="140" width="20" height="20" as="geometry" />
        </mxCell>
        <mxCell id="-noBp9sP09E2U7W5WZK8-21" value="&lt;b&gt;10&lt;/b&gt;" style="ellipse;whiteSpace=wrap;html=1;aspect=fixed;" parent="1" vertex="1">
          <mxGeometry x="540" y="140" width="20" height="20" as="geometry" />
        </mxCell>
      </root>
    </mxGraphModel>
  </diagram>
  <diagram id="NaPxXZHWJXsfwpZRX8lz" name="CooperateWith">
    <mxGraphModel dx="1009" dy="581" grid="1" gridSize="10" guides="1" tooltips="1" connect="1" arrows="1" fold="1" page="1" pageScale="1" pageWidth="827" pageHeight="1169" math="0" shadow="0">
      <root>
        <mxCell id="0" />
        <mxCell id="1" parent="0" />
        <mxCell id="9ai1zdXhSGfV74mGfb7r-3" style="edgeStyle=orthogonalEdgeStyle;rounded=0;orthogonalLoop=1;jettySize=auto;html=1;entryX=0;entryY=0.5;entryDx=0;entryDy=0;fontStyle=0;strokeWidth=2;" parent="1" source="iLivGmuFwviSjrkB5k5O-1" target="9ai1zdXhSGfV74mGfb7r-1" edge="1">
          <mxGeometry relative="1" as="geometry" />
        </mxCell>
        <mxCell id="74FujhC3j6ZioxIqXX51-3" style="edgeStyle=orthogonalEdgeStyle;rounded=0;orthogonalLoop=1;jettySize=auto;html=1;entryX=0.5;entryY=0;entryDx=0;entryDy=0;strokeWidth=2;" parent="1" source="iLivGmuFwviSjrkB5k5O-1" target="74FujhC3j6ZioxIqXX51-2" edge="1">
          <mxGeometry relative="1" as="geometry" />
        </mxCell>
        <mxCell id="iLivGmuFwviSjrkB5k5O-1" value="&lt;b&gt;Google&lt;/b&gt;" style="rounded=0;whiteSpace=wrap;html=1;" parent="1" vertex="1">
          <mxGeometry x="330" y="590" width="120" height="60" as="geometry" />
        </mxCell>
        <mxCell id="iLivGmuFwviSjrkB5k5O-2" value="&lt;b&gt;1&lt;/b&gt;" style="rounded=0;whiteSpace=wrap;html=1;" parent="1" vertex="1">
          <mxGeometry x="372.5" y="590" width="35" height="20" as="geometry" />
        </mxCell>
        <mxCell id="p5zT8GGp2pE6ZgW6Joqc-1" style="edgeStyle=orthogonalEdgeStyle;rounded=0;orthogonalLoop=1;jettySize=auto;html=1;entryX=0.5;entryY=1;entryDx=0;entryDy=0;strokeWidth=2;" parent="1" source="9ai1zdXhSGfV74mGfb7r-1" target="rfaT0au1AZqclidkOPzS-5" edge="1">
          <mxGeometry relative="1" as="geometry" />
        </mxCell>
        <mxCell id="9ai1zdXhSGfV74mGfb7r-1" value="&lt;b&gt;Akila&lt;/b&gt;" style="rounded=0;whiteSpace=wrap;html=1;" parent="1" vertex="1">
          <mxGeometry x="520" y="590" width="120" height="60" as="geometry" />
        </mxCell>
        <mxCell id="9ai1zdXhSGfV74mGfb7r-2" value="&lt;b&gt;4&lt;/b&gt;" style="rounded=0;whiteSpace=wrap;html=1;" parent="1" vertex="1">
          <mxGeometry x="562.5" y="590" width="35" height="20" as="geometry" />
        </mxCell>
        <mxCell id="74FujhC3j6ZioxIqXX51-1" value="&lt;b&gt;Xiaomi&lt;/b&gt;" style="rounded=0;whiteSpace=wrap;html=1;" parent="1" vertex="1">
          <mxGeometry x="330" y="760" width="120" height="60" as="geometry" />
        </mxCell>
        <mxCell id="74FujhC3j6ZioxIqXX51-2" value="&lt;b&gt;6&lt;/b&gt;" style="rounded=0;whiteSpace=wrap;html=1;" parent="1" vertex="1">
          <mxGeometry x="372.5" y="760" width="35" height="20" as="geometry" />
        </mxCell>
        <mxCell id="5n8iWFsrtlpjKMglU--3-1" style="edgeStyle=orthogonalEdgeStyle;rounded=0;orthogonalLoop=1;jettySize=auto;html=1;entryX=0;entryY=0.5;entryDx=0;entryDy=0;strokeWidth=2;" parent="1" source="74FujhC3j6ZioxIqXX51-4" target="lQNFDRWYM57HeylIy5Sz-1" edge="1">
          <mxGeometry relative="1" as="geometry" />
        </mxCell>
        <mxCell id="rfaT0au1AZqclidkOPzS-4" style="edgeStyle=orthogonalEdgeStyle;rounded=0;orthogonalLoop=1;jettySize=auto;html=1;entryX=1;entryY=0.5;entryDx=0;entryDy=0;strokeWidth=2;" parent="1" source="74FujhC3j6ZioxIqXX51-4" target="ooVa4qW0dzH5zBVhMVaO-1" edge="1">
          <mxGeometry relative="1" as="geometry" />
        </mxCell>
        <mxCell id="74FujhC3j6ZioxIqXX51-4" value="&lt;b&gt;Innowise&lt;/b&gt;" style="rounded=0;whiteSpace=wrap;html=1;" parent="1" vertex="1">
          <mxGeometry x="430" y="60" width="120" height="60" as="geometry" />
        </mxCell>
        <mxCell id="74FujhC3j6ZioxIqXX51-5" value="&lt;b&gt;3&lt;/b&gt;" style="rounded=0;whiteSpace=wrap;html=1;" parent="1" vertex="1">
          <mxGeometry x="472.5" y="60" width="35" height="20" as="geometry" />
        </mxCell>
        <mxCell id="lQNFDRWYM57HeylIy5Sz-1" value="&lt;b&gt;Samsung&lt;/b&gt;" style="rounded=0;whiteSpace=wrap;html=1;" parent="1" vertex="1">
          <mxGeometry x="630" y="140" width="120" height="60" as="geometry" />
        </mxCell>
        <mxCell id="lQNFDRWYM57HeylIy5Sz-2" value="&lt;b&gt;7&lt;/b&gt;" style="rounded=0;whiteSpace=wrap;html=1;" parent="1" vertex="1">
          <mxGeometry x="672.5" y="140" width="35" height="20" as="geometry" />
        </mxCell>
        <mxCell id="VJnGqFIrNq4EuFtXT4ss-3" style="edgeStyle=orthogonalEdgeStyle;rounded=0;orthogonalLoop=1;jettySize=auto;html=1;entryX=0.5;entryY=0;entryDx=0;entryDy=0;strokeWidth=2;" parent="1" source="5n8iWFsrtlpjKMglU--3-2" target="VJnGqFIrNq4EuFtXT4ss-2" edge="1">
          <mxGeometry relative="1" as="geometry" />
        </mxCell>
        <mxCell id="5n8iWFsrtlpjKMglU--3-2" value="&lt;b&gt;Moodle&lt;/b&gt;" style="rounded=0;whiteSpace=wrap;html=1;" parent="1" vertex="1">
          <mxGeometry x="520" y="250" width="120" height="60" as="geometry" />
        </mxCell>
        <mxCell id="5n8iWFsrtlpjKMglU--3-3" value="&lt;b&gt;2&lt;/b&gt;" style="rounded=0;whiteSpace=wrap;html=1;" parent="1" vertex="1">
          <mxGeometry x="562.5" y="250" width="35" height="20" as="geometry" />
        </mxCell>
        <mxCell id="VJnGqFIrNq4EuFtXT4ss-1" value="&lt;b&gt;Fujitsu&lt;/b&gt;" style="rounded=0;whiteSpace=wrap;html=1;" parent="1" vertex="1">
          <mxGeometry x="640" y="350" width="120" height="60" as="geometry" />
        </mxCell>
        <mxCell id="VJnGqFIrNq4EuFtXT4ss-2" value="&lt;b&gt;9&lt;/b&gt;" style="rounded=0;whiteSpace=wrap;html=1;" parent="1" vertex="1">
          <mxGeometry x="682.5" y="350" width="35" height="20" as="geometry" />
        </mxCell>
        <mxCell id="DTXhnwhm7_u_P1lkbyri-1" style="edgeStyle=orthogonalEdgeStyle;rounded=0;orthogonalLoop=1;jettySize=auto;html=1;entryX=0.5;entryY=0;entryDx=0;entryDy=0;strokeWidth=2;" parent="1" source="ooVa4qW0dzH5zBVhMVaO-1" target="ooVa4qW0dzH5zBVhMVaO-4" edge="1">
          <mxGeometry relative="1" as="geometry" />
        </mxCell>
        <mxCell id="ooVa4qW0dzH5zBVhMVaO-1" value="&lt;b&gt;Beheader&lt;/b&gt;" style="rounded=0;whiteSpace=wrap;html=1;" parent="1" vertex="1">
          <mxGeometry x="200" y="140" width="120" height="60" as="geometry" />
        </mxCell>
        <mxCell id="ooVa4qW0dzH5zBVhMVaO-2" value="&lt;b&gt;5&lt;/b&gt;" style="rounded=0;whiteSpace=wrap;html=1;" parent="1" vertex="1">
          <mxGeometry x="242.5" y="140" width="35" height="20" as="geometry" />
        </mxCell>
        <mxCell id="ooVa4qW0dzH5zBVhMVaO-3" value="&lt;b&gt;Intel&lt;/b&gt;" style="rounded=0;whiteSpace=wrap;html=1;" parent="1" vertex="1">
          <mxGeometry x="200" y="310" width="120" height="60" as="geometry" />
        </mxCell>
        <mxCell id="ooVa4qW0dzH5zBVhMVaO-4" value="&lt;b&gt;10&lt;/b&gt;" style="rounded=0;whiteSpace=wrap;html=1;" parent="1" vertex="1">
          <mxGeometry x="242.5" y="310" width="35" height="20" as="geometry" />
        </mxCell>
        <mxCell id="p5zT8GGp2pE6ZgW6Joqc-3" style="edgeStyle=orthogonalEdgeStyle;rounded=0;orthogonalLoop=1;jettySize=auto;html=1;entryX=0.5;entryY=1;entryDx=0;entryDy=0;strokeWidth=2;" parent="1" source="rfaT0au1AZqclidkOPzS-5" target="VJnGqFIrNq4EuFtXT4ss-1" edge="1">
          <mxGeometry relative="1" as="geometry" />
        </mxCell>
        <mxCell id="rfaT0au1AZqclidkOPzS-5" value="&lt;b&gt;Realme&lt;/b&gt;" style="rounded=0;whiteSpace=wrap;html=1;" parent="1" vertex="1">
          <mxGeometry x="520" y="470" width="120" height="60" as="geometry" />
        </mxCell>
        <mxCell id="rfaT0au1AZqclidkOPzS-6" value="&lt;b&gt;8&lt;/b&gt;" style="rounded=0;whiteSpace=wrap;html=1;" parent="1" vertex="1">
          <mxGeometry x="562.5" y="470" width="35" height="20" as="geometry" />
        </mxCell>
      </root>
    </mxGraphModel>
  </diagram>
  <diagram id="OpKRT-OrONpjX8cEz-a3" name="WorkOn">
    <mxGraphModel dx="1009" dy="581" grid="1" gridSize="10" guides="1" tooltips="1" connect="1" arrows="1" fold="1" page="1" pageScale="1" pageWidth="827" pageHeight="1169" math="0" shadow="0">
      <root>
        <mxCell id="0" />
        <mxCell id="1" parent="0" />
        <mxCell id="dXcws7jNz0y3KYkGDwkJ-2" style="edgeStyle=orthogonalEdgeStyle;rounded=0;orthogonalLoop=1;jettySize=auto;html=1;exitX=0.5;exitY=1;exitDx=0;exitDy=0;entryX=0.5;entryY=0;entryDx=0;entryDy=0;strokeWidth=2;" parent="1" source="Xg049iK4EqplbcULpOEp-1" target="dXcws7jNz0y3KYkGDwkJ-1" edge="1">
          <mxGeometry relative="1" as="geometry" />
        </mxCell>
        <mxCell id="Xg049iK4EqplbcULpOEp-1" value="&lt;b&gt;Иван&lt;/b&gt;" style="ellipse;whiteSpace=wrap;html=1;aspect=fixed;" parent="1" vertex="1">
          <mxGeometry x="80" y="40" width="80" height="80" as="geometry" />
        </mxCell>
        <mxCell id="d26VEposxJQLVdMxKV8B-1" value="&lt;b&gt;1&lt;/b&gt;" style="ellipse;whiteSpace=wrap;html=1;aspect=fixed;" parent="1" vertex="1">
          <mxGeometry x="110" y="40" width="20" height="20" as="geometry" />
        </mxCell>
        <mxCell id="MfQEdCGmnvQK8-_MCFFC-1" value="&lt;b&gt;Suffer&lt;/b&gt;" style="whiteSpace=wrap;html=1;aspect=fixed;" parent="1" vertex="1">
          <mxGeometry x="80" y="160" width="80" height="80" as="geometry" />
        </mxCell>
        <mxCell id="dXcws7jNz0y3KYkGDwkJ-1" value="&lt;b&gt;7&lt;/b&gt;" style="whiteSpace=wrap;html=1;aspect=fixed;" parent="1" vertex="1">
          <mxGeometry x="110" y="160" width="20" height="20" as="geometry" />
        </mxCell>
        <mxCell id="stMgQ08yArLnh2lirLyx-3" style="edgeStyle=orthogonalEdgeStyle;rounded=0;orthogonalLoop=1;jettySize=auto;html=1;entryX=0.5;entryY=0;entryDx=0;entryDy=0;strokeWidth=2;" parent="1" source="dXcws7jNz0y3KYkGDwkJ-3" target="stMgQ08yArLnh2lirLyx-2" edge="1">
          <mxGeometry relative="1" as="geometry" />
        </mxCell>
        <mxCell id="dXcws7jNz0y3KYkGDwkJ-3" value="&lt;b&gt;Вера&lt;/b&gt;" style="ellipse;whiteSpace=wrap;html=1;aspect=fixed;" parent="1" vertex="1">
          <mxGeometry x="210" y="40" width="80" height="80" as="geometry" />
        </mxCell>
        <mxCell id="dXcws7jNz0y3KYkGDwkJ-4" value="&lt;b&gt;2&lt;/b&gt;" style="ellipse;whiteSpace=wrap;html=1;aspect=fixed;" parent="1" vertex="1">
          <mxGeometry x="240" y="40" width="20" height="20" as="geometry" />
        </mxCell>
        <mxCell id="stMgQ08yArLnh2lirLyx-1" value="&lt;b&gt;Suffer&lt;/b&gt;" style="whiteSpace=wrap;html=1;aspect=fixed;" parent="1" vertex="1">
          <mxGeometry x="210" y="160" width="80" height="80" as="geometry" />
        </mxCell>
        <mxCell id="stMgQ08yArLnh2lirLyx-2" value="&lt;b&gt;9&lt;/b&gt;" style="whiteSpace=wrap;html=1;aspect=fixed;" parent="1" vertex="1">
          <mxGeometry x="240" y="160" width="20" height="20" as="geometry" />
        </mxCell>
        <mxCell id="dCJv06BWmtJ_yGHZpT2i-3" style="edgeStyle=orthogonalEdgeStyle;rounded=0;orthogonalLoop=1;jettySize=auto;html=1;entryX=0.5;entryY=0;entryDx=0;entryDy=0;strokeWidth=2;" parent="1" source="stMgQ08yArLnh2lirLyx-4" target="dCJv06BWmtJ_yGHZpT2i-2" edge="1">
          <mxGeometry relative="1" as="geometry" />
        </mxCell>
        <mxCell id="stMgQ08yArLnh2lirLyx-4" value="&lt;b&gt;Вера&lt;/b&gt;" style="ellipse;whiteSpace=wrap;html=1;aspect=fixed;" parent="1" vertex="1">
          <mxGeometry x="340" y="40" width="80" height="80" as="geometry" />
        </mxCell>
        <mxCell id="stMgQ08yArLnh2lirLyx-5" value="&lt;b&gt;3&lt;/b&gt;" style="ellipse;whiteSpace=wrap;html=1;aspect=fixed;" parent="1" vertex="1">
          <mxGeometry x="370" y="40" width="20" height="20" as="geometry" />
        </mxCell>
        <mxCell id="dCJv06BWmtJ_yGHZpT2i-1" value="&lt;b&gt;Diary&lt;/b&gt;" style="whiteSpace=wrap;html=1;aspect=fixed;" parent="1" vertex="1">
          <mxGeometry x="340" y="160" width="80" height="80" as="geometry" />
        </mxCell>
        <mxCell id="dCJv06BWmtJ_yGHZpT2i-2" value="&lt;b&gt;8&lt;/b&gt;" style="whiteSpace=wrap;html=1;aspect=fixed;" parent="1" vertex="1">
          <mxGeometry x="370" y="160" width="20" height="20" as="geometry" />
        </mxCell>
        <mxCell id="vvp00PLEb_QFugW3BZtt-1" style="edgeStyle=orthogonalEdgeStyle;rounded=0;orthogonalLoop=1;jettySize=auto;html=1;strokeWidth=2;" parent="1" source="dCJv06BWmtJ_yGHZpT2i-4" target="xoxFT3dlGxfvT-0NhQT6-2" edge="1">
          <mxGeometry relative="1" as="geometry" />
        </mxCell>
        <mxCell id="dCJv06BWmtJ_yGHZpT2i-4" value="&lt;b&gt;Олег&lt;/b&gt;" style="ellipse;whiteSpace=wrap;html=1;aspect=fixed;" parent="1" vertex="1">
          <mxGeometry x="460" y="40" width="80" height="80" as="geometry" />
        </mxCell>
        <mxCell id="dCJv06BWmtJ_yGHZpT2i-5" value="&lt;b&gt;4&lt;/b&gt;" style="ellipse;whiteSpace=wrap;html=1;aspect=fixed;" parent="1" vertex="1">
          <mxGeometry x="490" y="40" width="20" height="20" as="geometry" />
        </mxCell>
        <mxCell id="xoxFT3dlGxfvT-0NhQT6-1" value="&lt;b&gt;Shots&lt;/b&gt;" style="whiteSpace=wrap;html=1;aspect=fixed;" parent="1" vertex="1">
          <mxGeometry x="460" y="160" width="80" height="80" as="geometry" />
        </mxCell>
        <mxCell id="xoxFT3dlGxfvT-0NhQT6-2" value="&lt;b&gt;2&lt;/b&gt;" style="whiteSpace=wrap;html=1;aspect=fixed;" parent="1" vertex="1">
          <mxGeometry x="490" y="160" width="20" height="20" as="geometry" />
        </mxCell>
        <mxCell id="fwuAFVpZfowVelyxzXdH-3" style="edgeStyle=orthogonalEdgeStyle;rounded=0;orthogonalLoop=1;jettySize=auto;html=1;entryX=0.5;entryY=0;entryDx=0;entryDy=0;strokeWidth=2;" parent="1" source="vvp00PLEb_QFugW3BZtt-2" target="fwuAFVpZfowVelyxzXdH-2" edge="1">
          <mxGeometry relative="1" as="geometry" />
        </mxCell>
        <mxCell id="vvp00PLEb_QFugW3BZtt-2" value="&lt;b&gt;Нина&lt;/b&gt;" style="ellipse;whiteSpace=wrap;html=1;aspect=fixed;" parent="1" vertex="1">
          <mxGeometry x="580" y="40" width="80" height="80" as="geometry" />
        </mxCell>
        <mxCell id="vvp00PLEb_QFugW3BZtt-3" value="&lt;b&gt;5&lt;/b&gt;" style="ellipse;whiteSpace=wrap;html=1;aspect=fixed;" parent="1" vertex="1">
          <mxGeometry x="610" y="40" width="20" height="20" as="geometry" />
        </mxCell>
        <mxCell id="fwuAFVpZfowVelyxzXdH-1" value="&lt;b&gt;Angry Pigs&lt;/b&gt;" style="whiteSpace=wrap;html=1;aspect=fixed;" parent="1" vertex="1">
          <mxGeometry x="580" y="160" width="80" height="80" as="geometry" />
        </mxCell>
        <mxCell id="fwuAFVpZfowVelyxzXdH-2" value="&lt;b&gt;1&lt;/b&gt;" style="whiteSpace=wrap;html=1;aspect=fixed;" parent="1" vertex="1">
          <mxGeometry x="610" y="160" width="20" height="20" as="geometry" />
        </mxCell>
        <mxCell id="yRGlOpsiEuxmV_m5a4FR-1" style="edgeStyle=orthogonalEdgeStyle;rounded=0;orthogonalLoop=1;jettySize=auto;html=1;strokeWidth=2;" parent="1" source="fwuAFVpZfowVelyxzXdH-4" target="4NABPpIcOQ6mx8NrVYqP-2" edge="1">
          <mxGeometry relative="1" as="geometry" />
        </mxCell>
        <mxCell id="fwuAFVpZfowVelyxzXdH-4" value="&lt;b&gt;Глеб&lt;/b&gt;" style="ellipse;whiteSpace=wrap;html=1;aspect=fixed;" parent="1" vertex="1">
          <mxGeometry x="80" y="290" width="80" height="80" as="geometry" />
        </mxCell>
        <mxCell id="fwuAFVpZfowVelyxzXdH-5" value="&lt;b&gt;6&lt;/b&gt;" style="ellipse;whiteSpace=wrap;html=1;aspect=fixed;" parent="1" vertex="1">
          <mxGeometry x="110" y="290" width="20" height="20" as="geometry" />
        </mxCell>
        <mxCell id="4NABPpIcOQ6mx8NrVYqP-1" value="&lt;b&gt;Anihilate humaty&lt;/b&gt;" style="whiteSpace=wrap;html=1;aspect=fixed;" parent="1" vertex="1">
          <mxGeometry x="80" y="410" width="80" height="80" as="geometry" />
        </mxCell>
        <mxCell id="4NABPpIcOQ6mx8NrVYqP-2" value="&lt;b&gt;4&lt;/b&gt;" style="whiteSpace=wrap;html=1;aspect=fixed;" parent="1" vertex="1">
          <mxGeometry x="110" y="410" width="20" height="20" as="geometry" />
        </mxCell>
        <mxCell id="gIkKk1d9DMmmKYCHXm8z-1" style="edgeStyle=orthogonalEdgeStyle;rounded=0;orthogonalLoop=1;jettySize=auto;html=1;entryX=0.5;entryY=0;entryDx=0;entryDy=0;strokeWidth=2;" parent="1" source="yRGlOpsiEuxmV_m5a4FR-2" target="Q2GCjSXZ9XvVjVzKphA9-2" edge="1">
          <mxGeometry relative="1" as="geometry" />
        </mxCell>
        <mxCell id="yRGlOpsiEuxmV_m5a4FR-2" value="&lt;b&gt;Петр&lt;/b&gt;" style="ellipse;whiteSpace=wrap;html=1;aspect=fixed;" parent="1" vertex="1">
          <mxGeometry x="210" y="290" width="80" height="80" as="geometry" />
        </mxCell>
        <mxCell id="yRGlOpsiEuxmV_m5a4FR-3" value="&lt;b&gt;7&lt;/b&gt;" style="ellipse;whiteSpace=wrap;html=1;aspect=fixed;" parent="1" vertex="1">
          <mxGeometry x="240" y="290" width="20" height="20" as="geometry" />
        </mxCell>
        <mxCell id="Q2GCjSXZ9XvVjVzKphA9-1" value="&lt;b&gt;Rip&lt;/b&gt;" style="whiteSpace=wrap;html=1;aspect=fixed;" parent="1" vertex="1">
          <mxGeometry x="210" y="410" width="80" height="80" as="geometry" />
        </mxCell>
        <mxCell id="Q2GCjSXZ9XvVjVzKphA9-2" value="&lt;b&gt;3&lt;/b&gt;" style="whiteSpace=wrap;html=1;aspect=fixed;" parent="1" vertex="1">
          <mxGeometry x="240" y="410" width="20" height="20" as="geometry" />
        </mxCell>
        <mxCell id="IgzbIXzG_D5DHkkomurX-1" style="edgeStyle=orthogonalEdgeStyle;rounded=0;orthogonalLoop=1;jettySize=auto;html=1;strokeWidth=2;" parent="1" source="gIkKk1d9DMmmKYCHXm8z-2" target="kdJE_hNzfzClWQDQcwMY-2" edge="1">
          <mxGeometry relative="1" as="geometry" />
        </mxCell>
        <mxCell id="gIkKk1d9DMmmKYCHXm8z-2" value="&lt;b&gt;Яна&lt;/b&gt;" style="ellipse;whiteSpace=wrap;html=1;aspect=fixed;" parent="1" vertex="1">
          <mxGeometry x="340" y="290" width="80" height="80" as="geometry" />
        </mxCell>
        <mxCell id="gIkKk1d9DMmmKYCHXm8z-3" value="&lt;b&gt;8&lt;/b&gt;" style="ellipse;whiteSpace=wrap;html=1;aspect=fixed;" parent="1" vertex="1">
          <mxGeometry x="370" y="290" width="20" height="20" as="geometry" />
        </mxCell>
        <mxCell id="kdJE_hNzfzClWQDQcwMY-1" value="&lt;b&gt;Behead&lt;/b&gt;" style="whiteSpace=wrap;html=1;aspect=fixed;" parent="1" vertex="1">
          <mxGeometry x="340" y="410" width="80" height="80" as="geometry" />
        </mxCell>
        <mxCell id="kdJE_hNzfzClWQDQcwMY-2" value="&lt;b&gt;5&lt;/b&gt;" style="whiteSpace=wrap;html=1;aspect=fixed;" parent="1" vertex="1">
          <mxGeometry x="370" y="410" width="20" height="20" as="geometry" />
        </mxCell>
        <mxCell id="su8TDl8mTOSThj7bIIzd-1" style="edgeStyle=orthogonalEdgeStyle;rounded=0;orthogonalLoop=1;jettySize=auto;html=1;entryX=0.5;entryY=0;entryDx=0;entryDy=0;strokeWidth=2;" parent="1" source="IgzbIXzG_D5DHkkomurX-2" target="yvP5zOuqTru7BQlgXRmx-2" edge="1">
          <mxGeometry relative="1" as="geometry" />
        </mxCell>
        <mxCell id="IgzbIXzG_D5DHkkomurX-2" value="&lt;b&gt;Николай&lt;/b&gt;" style="ellipse;whiteSpace=wrap;html=1;aspect=fixed;" parent="1" vertex="1">
          <mxGeometry x="460" y="290" width="80" height="80" as="geometry" />
        </mxCell>
        <mxCell id="IgzbIXzG_D5DHkkomurX-3" value="&lt;b&gt;9&lt;/b&gt;" style="ellipse;whiteSpace=wrap;html=1;aspect=fixed;" parent="1" vertex="1">
          <mxGeometry x="490" y="290" width="20" height="20" as="geometry" />
        </mxCell>
        <mxCell id="yvP5zOuqTru7BQlgXRmx-1" value="&lt;b&gt;Shot&lt;/b&gt;" style="whiteSpace=wrap;html=1;aspect=fixed;" parent="1" vertex="1">
          <mxGeometry x="460" y="410" width="80" height="80" as="geometry" />
        </mxCell>
        <mxCell id="yvP5zOuqTru7BQlgXRmx-2" value="&lt;b&gt;10&lt;/b&gt;" style="whiteSpace=wrap;html=1;aspect=fixed;" parent="1" vertex="1">
          <mxGeometry x="490" y="410" width="20" height="20" as="geometry" />
        </mxCell>
        <mxCell id="AlzxGXOKsuHb-mv01sTu-1" style="edgeStyle=orthogonalEdgeStyle;rounded=0;orthogonalLoop=1;jettySize=auto;html=1;entryX=0.5;entryY=0;entryDx=0;entryDy=0;strokeWidth=2;" parent="1" source="su8TDl8mTOSThj7bIIzd-2" target="su8TDl8mTOSThj7bIIzd-5" edge="1">
          <mxGeometry relative="1" as="geometry" />
        </mxCell>
        <mxCell id="su8TDl8mTOSThj7bIIzd-2" value="&lt;b&gt;Инна&lt;/b&gt;" style="ellipse;whiteSpace=wrap;html=1;aspect=fixed;" parent="1" vertex="1">
          <mxGeometry x="580" y="290" width="80" height="80" as="geometry" />
        </mxCell>
        <mxCell id="su8TDl8mTOSThj7bIIzd-3" value="&lt;b&gt;10&lt;/b&gt;" style="ellipse;whiteSpace=wrap;html=1;aspect=fixed;" parent="1" vertex="1">
          <mxGeometry x="610" y="290" width="20" height="20" as="geometry" />
        </mxCell>
        <mxCell id="su8TDl8mTOSThj7bIIzd-4" value="&lt;b&gt;Opponent&lt;/b&gt;" style="whiteSpace=wrap;html=1;aspect=fixed;" parent="1" vertex="1">
          <mxGeometry x="580" y="410" width="80" height="80" as="geometry" />
        </mxCell>
        <mxCell id="su8TDl8mTOSThj7bIIzd-5" value="&lt;b&gt;6&lt;/b&gt;" style="whiteSpace=wrap;html=1;aspect=fixed;" parent="1" vertex="1">
          <mxGeometry x="610" y="410" width="20" height="20" as="geometry" />
        </mxCell>
      </root>
    </mxGraphModel>
  </diagram>
  <diagram id="v1DNxmtk0dNdYzbJ8NnI" name="ResponsibleFor">
    <mxGraphModel dx="1009" dy="2919" grid="1" gridSize="10" guides="1" tooltips="1" connect="1" arrows="1" fold="1" page="1" pageScale="1" pageWidth="827" pageHeight="1169" math="0" shadow="0">
      <root>
        <mxCell id="0" />
        <mxCell id="1" parent="0" />
        <mxCell id="6YH1c9ctNR_RpO76NTBy-2" style="edgeStyle=orthogonalEdgeStyle;rounded=0;orthogonalLoop=1;jettySize=auto;html=1;entryX=0.5;entryY=0;entryDx=0;entryDy=0;strokeWidth=2;" edge="1" parent="1" source="yl5nNZuhd9MVGjupiX4a-2" target="6MVP4aljXt0uDNYwtGvd-3">
          <mxGeometry relative="1" as="geometry" />
        </mxCell>
        <mxCell id="02L5nPUvjumSqmnsqS16-1" style="edgeStyle=orthogonalEdgeStyle;rounded=0;orthogonalLoop=1;jettySize=auto;html=1;entryX=0.5;entryY=1;entryDx=0;entryDy=0;strokeWidth=2;" edge="1" parent="1" source="yl5nNZuhd9MVGjupiX4a-2" target="O_RXEAUzCwRTXZsK_Lmy-1">
          <mxGeometry relative="1" as="geometry" />
        </mxCell>
        <mxCell id="yl5nNZuhd9MVGjupiX4a-2" value="&lt;b&gt;Fujitsu&lt;/b&gt;" style="rounded=0;whiteSpace=wrap;html=1;" vertex="1" parent="1">
          <mxGeometry x="520" y="-1950" width="120" height="60" as="geometry" />
        </mxCell>
        <mxCell id="6MVP4aljXt0uDNYwtGvd-1" value="&lt;b&gt;9&lt;/b&gt;" style="rounded=0;whiteSpace=wrap;html=1;" vertex="1" parent="1">
          <mxGeometry x="562.5" y="-1950" width="35" height="20" as="geometry" />
        </mxCell>
        <mxCell id="6MVP4aljXt0uDNYwtGvd-2" value="&lt;b&gt;Angry Pigs&lt;/b&gt;" style="whiteSpace=wrap;html=1;aspect=fixed;" vertex="1" parent="1">
          <mxGeometry x="540" y="-1810" width="80" height="80" as="geometry" />
        </mxCell>
        <mxCell id="6MVP4aljXt0uDNYwtGvd-3" value="&lt;b&gt;1&lt;/b&gt;" style="whiteSpace=wrap;html=1;aspect=fixed;" vertex="1" parent="1">
          <mxGeometry x="570" y="-1810" width="20" height="20" as="geometry" />
        </mxCell>
        <mxCell id="6YH1c9ctNR_RpO76NTBy-5" style="edgeStyle=orthogonalEdgeStyle;rounded=0;orthogonalLoop=1;jettySize=auto;html=1;entryX=0.5;entryY=0;entryDx=0;entryDy=0;strokeWidth=2;" edge="1" parent="1" source="6MVP4aljXt0uDNYwtGvd-5" target="6YH1c9ctNR_RpO76NTBy-4">
          <mxGeometry relative="1" as="geometry" />
        </mxCell>
        <mxCell id="6MVP4aljXt0uDNYwtGvd-5" value="&lt;b&gt;Akila&lt;/b&gt;" style="rounded=0;whiteSpace=wrap;html=1;" vertex="1" parent="1">
          <mxGeometry x="20" y="-2240" width="120" height="60" as="geometry" />
        </mxCell>
        <mxCell id="6MVP4aljXt0uDNYwtGvd-6" value="&lt;b&gt;4&lt;/b&gt;" style="rounded=0;whiteSpace=wrap;html=1;" vertex="1" parent="1">
          <mxGeometry x="62.5" y="-2240" width="35" height="20" as="geometry" />
        </mxCell>
        <mxCell id="6YH1c9ctNR_RpO76NTBy-3" value="&lt;b&gt;Shots&lt;/b&gt;" style="whiteSpace=wrap;html=1;aspect=fixed;" vertex="1" parent="1">
          <mxGeometry x="40" y="-2100" width="80" height="80" as="geometry" />
        </mxCell>
        <mxCell id="6YH1c9ctNR_RpO76NTBy-4" value="&lt;b&gt;2&lt;/b&gt;" style="whiteSpace=wrap;html=1;aspect=fixed;" vertex="1" parent="1">
          <mxGeometry x="70" y="-2100" width="20" height="20" as="geometry" />
        </mxCell>
        <mxCell id="oDd28Dqf0XuJpwvaG5rw-1" style="edgeStyle=orthogonalEdgeStyle;rounded=0;orthogonalLoop=1;jettySize=auto;html=1;strokeWidth=2;" edge="1" parent="1" source="zUtFoAsz0TEDpsB95fGJ-1" target="uj_ruXWD0uMUD8ZEP-PW-2">
          <mxGeometry relative="1" as="geometry" />
        </mxCell>
        <mxCell id="zUtFoAsz0TEDpsB95fGJ-1" value="&lt;b&gt;Google&lt;/b&gt;" style="rounded=0;whiteSpace=wrap;html=1;" vertex="1" parent="1">
          <mxGeometry x="190" y="-2240" width="120" height="60" as="geometry" />
        </mxCell>
        <mxCell id="zUtFoAsz0TEDpsB95fGJ-2" value="&lt;b&gt;1&lt;/b&gt;" style="rounded=0;whiteSpace=wrap;html=1;" vertex="1" parent="1">
          <mxGeometry x="232.5" y="-2240" width="35" height="20" as="geometry" />
        </mxCell>
        <mxCell id="uj_ruXWD0uMUD8ZEP-PW-1" value="&lt;b&gt;Rip&lt;/b&gt;" style="whiteSpace=wrap;html=1;aspect=fixed;" vertex="1" parent="1">
          <mxGeometry x="210" y="-2100" width="80" height="80" as="geometry" />
        </mxCell>
        <mxCell id="uj_ruXWD0uMUD8ZEP-PW-2" value="&lt;b&gt;3&lt;/b&gt;" style="whiteSpace=wrap;html=1;aspect=fixed;" vertex="1" parent="1">
          <mxGeometry x="240" y="-2100" width="20" height="20" as="geometry" />
        </mxCell>
        <mxCell id="7580VXlTdlm6PQeGJq7R-2" style="edgeStyle=orthogonalEdgeStyle;rounded=0;orthogonalLoop=1;jettySize=auto;html=1;entryX=0.5;entryY=0;entryDx=0;entryDy=0;strokeWidth=2;" edge="1" parent="1" source="oDd28Dqf0XuJpwvaG5rw-3" target="7580VXlTdlm6PQeGJq7R-1">
          <mxGeometry relative="1" as="geometry" />
        </mxCell>
        <mxCell id="oDd28Dqf0XuJpwvaG5rw-3" value="&lt;b&gt;Rip&lt;/b&gt;" style="rounded=0;whiteSpace=wrap;html=1;" vertex="1" parent="1">
          <mxGeometry x="354" y="-2240" width="120" height="60" as="geometry" />
        </mxCell>
        <mxCell id="oDd28Dqf0XuJpwvaG5rw-4" value="&lt;b&gt;3&lt;/b&gt;" style="rounded=0;whiteSpace=wrap;html=1;" vertex="1" parent="1">
          <mxGeometry x="396" y="-2240" width="35" height="20" as="geometry" />
        </mxCell>
        <mxCell id="oDd28Dqf0XuJpwvaG5rw-5" value="&lt;b style=&quot;border-color: var(--border-color);&quot;&gt;Anihilate humanity&lt;/b&gt;" style="whiteSpace=wrap;html=1;aspect=fixed;" vertex="1" parent="1">
          <mxGeometry x="374" y="-2100" width="80" height="80" as="geometry" />
        </mxCell>
        <mxCell id="7580VXlTdlm6PQeGJq7R-1" value="&lt;b&gt;4&lt;/b&gt;" style="whiteSpace=wrap;html=1;aspect=fixed;" vertex="1" parent="1">
          <mxGeometry x="404" y="-2100" width="20" height="20" as="geometry" />
        </mxCell>
        <mxCell id="oKwGxXhDzIZoaX8Q9dgz-1" style="edgeStyle=orthogonalEdgeStyle;rounded=0;orthogonalLoop=1;jettySize=auto;html=1;entryX=0.5;entryY=0;entryDx=0;entryDy=0;strokeWidth=2;" edge="1" parent="1" source="7580VXlTdlm6PQeGJq7R-3" target="O_RXEAUzCwRTXZsK_Lmy-2">
          <mxGeometry relative="1" as="geometry" />
        </mxCell>
        <mxCell id="7580VXlTdlm6PQeGJq7R-3" value="&lt;b&gt;Xiaomi&lt;/b&gt;" style="rounded=0;whiteSpace=wrap;html=1;" vertex="1" parent="1">
          <mxGeometry x="520" y="-2240" width="120" height="60" as="geometry" />
        </mxCell>
        <mxCell id="7580VXlTdlm6PQeGJq7R-6" value="&lt;b&gt;6&lt;/b&gt;" style="rounded=0;whiteSpace=wrap;html=1;" vertex="1" parent="1">
          <mxGeometry x="562.5" y="-2240" width="35" height="20" as="geometry" />
        </mxCell>
        <mxCell id="O_RXEAUzCwRTXZsK_Lmy-1" value="&lt;b&gt;Behead&lt;/b&gt;" style="whiteSpace=wrap;html=1;aspect=fixed;" vertex="1" parent="1">
          <mxGeometry x="540" y="-2100" width="80" height="80" as="geometry" />
        </mxCell>
        <mxCell id="O_RXEAUzCwRTXZsK_Lmy-2" value="&lt;b&gt;5&lt;/b&gt;" style="whiteSpace=wrap;html=1;aspect=fixed;" vertex="1" parent="1">
          <mxGeometry x="570" y="-2100" width="20" height="20" as="geometry" />
        </mxCell>
        <mxCell id="hKXrzcR2KbI9z9M5QG1Q-3" style="edgeStyle=orthogonalEdgeStyle;rounded=0;orthogonalLoop=1;jettySize=auto;html=1;entryX=0.5;entryY=0;entryDx=0;entryDy=0;strokeWidth=2;" edge="1" parent="1" source="oKwGxXhDzIZoaX8Q9dgz-3" target="hKXrzcR2KbI9z9M5QG1Q-2">
          <mxGeometry relative="1" as="geometry" />
        </mxCell>
        <mxCell id="oKwGxXhDzIZoaX8Q9dgz-3" value="&lt;b&gt;Realme&lt;/b&gt;" style="rounded=0;whiteSpace=wrap;html=1;" vertex="1" parent="1">
          <mxGeometry x="30" y="-1950" width="120" height="60" as="geometry" />
        </mxCell>
        <mxCell id="oKwGxXhDzIZoaX8Q9dgz-4" value="&lt;b&gt;8&lt;/b&gt;" style="rounded=0;whiteSpace=wrap;html=1;" vertex="1" parent="1">
          <mxGeometry x="72.5" y="-1950" width="35" height="20" as="geometry" />
        </mxCell>
        <mxCell id="hKXrzcR2KbI9z9M5QG1Q-1" value="&lt;b&gt;Opponent&lt;/b&gt;" style="whiteSpace=wrap;html=1;aspect=fixed;" vertex="1" parent="1">
          <mxGeometry x="50" y="-1810" width="80" height="80" as="geometry" />
        </mxCell>
        <mxCell id="hKXrzcR2KbI9z9M5QG1Q-2" value="&lt;b&gt;6&lt;/b&gt;" style="whiteSpace=wrap;html=1;aspect=fixed;" vertex="1" parent="1">
          <mxGeometry x="80" y="-1810" width="20" height="20" as="geometry" />
        </mxCell>
        <mxCell id="yki0QLJg1bTpNKQM7kzf-3" style="edgeStyle=orthogonalEdgeStyle;rounded=0;orthogonalLoop=1;jettySize=auto;html=1;entryX=0.5;entryY=0;entryDx=0;entryDy=0;strokeWidth=2;" edge="1" parent="1" source="xJ1X4L9bBjPng6VoBzil-1" target="yki0QLJg1bTpNKQM7kzf-2">
          <mxGeometry relative="1" as="geometry" />
        </mxCell>
        <mxCell id="xJ1X4L9bBjPng6VoBzil-1" value="&lt;b&gt;Moodle&lt;/b&gt;" style="rounded=0;whiteSpace=wrap;html=1;" vertex="1" parent="1">
          <mxGeometry x="190" y="-1950" width="120" height="60" as="geometry" />
        </mxCell>
        <mxCell id="xJ1X4L9bBjPng6VoBzil-2" value="&lt;b&gt;2&lt;/b&gt;" style="rounded=0;whiteSpace=wrap;html=1;" vertex="1" parent="1">
          <mxGeometry x="232.5" y="-1950" width="35" height="20" as="geometry" />
        </mxCell>
        <mxCell id="yki0QLJg1bTpNKQM7kzf-1" value="&lt;b&gt;Suffer&lt;/b&gt;" style="whiteSpace=wrap;html=1;aspect=fixed;" vertex="1" parent="1">
          <mxGeometry x="210" y="-1810" width="80" height="80" as="geometry" />
        </mxCell>
        <mxCell id="yki0QLJg1bTpNKQM7kzf-2" value="&lt;b&gt;7&lt;/b&gt;" style="whiteSpace=wrap;html=1;aspect=fixed;" vertex="1" parent="1">
          <mxGeometry x="240" y="-1810" width="20" height="20" as="geometry" />
        </mxCell>
        <mxCell id="3FWsAnBVA-fdC1paz6KG-1" style="edgeStyle=orthogonalEdgeStyle;rounded=0;orthogonalLoop=1;jettySize=auto;html=1;entryX=0.5;entryY=0;entryDx=0;entryDy=0;strokeWidth=2;" edge="1" parent="1" source="8u6mJ5K4huB1ZnSun7IY-1" target="o48_5RKF7NQ7mzblurVb-2">
          <mxGeometry relative="1" as="geometry" />
        </mxCell>
        <mxCell id="8u6mJ5K4huB1ZnSun7IY-1" value="&lt;b&gt;Sumsung&lt;/b&gt;" style="rounded=0;whiteSpace=wrap;html=1;" vertex="1" parent="1">
          <mxGeometry x="354" y="-1950" width="120" height="60" as="geometry" />
        </mxCell>
        <mxCell id="8u6mJ5K4huB1ZnSun7IY-2" value="&lt;b&gt;7&lt;/b&gt;" style="rounded=0;whiteSpace=wrap;html=1;" vertex="1" parent="1">
          <mxGeometry x="396.5" y="-1950" width="35" height="20" as="geometry" />
        </mxCell>
        <mxCell id="o48_5RKF7NQ7mzblurVb-1" value="&lt;b&gt;Diary&lt;/b&gt;" style="whiteSpace=wrap;html=1;aspect=fixed;" vertex="1" parent="1">
          <mxGeometry x="374" y="-1810" width="80" height="80" as="geometry" />
        </mxCell>
        <mxCell id="o48_5RKF7NQ7mzblurVb-2" value="&lt;b&gt;8&lt;/b&gt;" style="whiteSpace=wrap;html=1;aspect=fixed;" vertex="1" parent="1">
          <mxGeometry x="404" y="-1810" width="20" height="20" as="geometry" />
        </mxCell>
        <mxCell id="02L5nPUvjumSqmnsqS16-6" style="edgeStyle=orthogonalEdgeStyle;rounded=0;orthogonalLoop=1;jettySize=auto;html=1;entryX=0.5;entryY=0;entryDx=0;entryDy=0;strokeWidth=2;" edge="1" parent="1" source="02L5nPUvjumSqmnsqS16-2" target="02L5nPUvjumSqmnsqS16-5">
          <mxGeometry relative="1" as="geometry" />
        </mxCell>
        <mxCell id="02L5nPUvjumSqmnsqS16-2" value="&lt;b&gt;Intel&lt;/b&gt;" style="rounded=0;whiteSpace=wrap;html=1;" vertex="1" parent="1">
          <mxGeometry x="680" y="-2240" width="120" height="60" as="geometry" />
        </mxCell>
        <mxCell id="02L5nPUvjumSqmnsqS16-3" value="&lt;b&gt;10&lt;/b&gt;" style="rounded=0;whiteSpace=wrap;html=1;" vertex="1" parent="1">
          <mxGeometry x="722.5" y="-2240" width="35" height="20" as="geometry" />
        </mxCell>
        <mxCell id="02L5nPUvjumSqmnsqS16-4" value="&lt;b&gt;Shot&lt;/b&gt;" style="whiteSpace=wrap;html=1;aspect=fixed;" vertex="1" parent="1">
          <mxGeometry x="700" y="-2100" width="80" height="80" as="geometry" />
        </mxCell>
        <mxCell id="02L5nPUvjumSqmnsqS16-5" value="&lt;b&gt;10&lt;/b&gt;" style="whiteSpace=wrap;html=1;aspect=fixed;" vertex="1" parent="1">
          <mxGeometry x="730" y="-2100" width="20" height="20" as="geometry" />
        </mxCell>
      </root>
    </mxGraphModel>
  </diagram>
</mxfile>
